<?xml version="1.0" standalone="no"?>
<!DOCTYPE svg PUBLIC "-//W3C//DTD SVG 20010904//EN"
 "http://www.w3.org/TR/2001/REC-SVG-20010904/DTD/svg10.dtd">
<svg version="1.0" xmlns="http://www.w3.org/2000/svg"
 width="348.000000pt" height="350.000000pt" viewBox="0 0 348.000000 350.000000"
 preserveAspectRatio="xMidYMid meet">

<g transform="translate(0.000000,350.000000) scale(0.100000,-0.100000)"
fill="#000000" stroke="none">
<path d="M1584 3479 c-515 -46 -993 -330 -1286 -764 -349 -518 -394 -1185
-116 -1739 492 -983 1730 -1277 2605 -619 223 167 396 381 523 646 263 546
216 1197 -123 1705 -174 261 -391 452 -672 592 -217 108 -402 160 -642 180
-132 11 -159 11 -289 -1z m449 -169 c649 -125 1152 -632 1273 -1285 26 -137
26 -429 0 -565 -163 -870 -1002 -1445 -1864 -1279 -479 92 -889 399 -1110 828
-135 262 -190 507 -179 794 9 250 60 443 173 667 242 477 707 798 1248 860
112 13 338 3 459 -20z"/>
<path d="M736 2545 c-44 -15 -90 -56 -114 -100 -15 -27 -17 -94 -17 -700 0
-612 1 -673 17 -701 25 -45 82 -92 127 -104 27 -7 357 -10 1038 -8 l998 3 41
23 c49 29 91 90 99 146 3 22 5 327 3 676 l-3 635 -23 40 c-26 45 -72 81 -123
95 -21 6 -409 10 -1019 10 -810 -1 -992 -3 -1024 -15z m1942 -137 c-6 -15
-797 -733 -837 -759 -56 -37 -96 -37 -149 -1 -36 24 -833 747 -839 761 -2 3
409 6 912 6 503 0 914 -3 913 -7z m-1590 -433 c212 -191 261 -240 250 -250
-27 -24 -328 -304 -455 -423 l-133 -124 0 553 0 553 38 -35 c20 -20 155 -143
300 -274z m1692 -245 l0 -551 -297 278 c-164 153 -297 280 -297 282 1 4 586
539 592 540 1 1 2 -247 2 -549z m-1140 -244 c61 -27 176 -28 244 -2 27 10 82
47 122 82 l73 64 297 -273 297 -272 -904 -5 c-497 -3 -906 -4 -908 -2 -7 4 8
18 318 301 l274 250 71 -61 c39 -34 91 -70 116 -82z"/>
</g>
</svg>
