<?xml version="1.0" standalone="no"?>
<!DOCTYPE svg PUBLIC "-//W3C//DTD SVG 20010904//EN"
 "http://www.w3.org/TR/2001/REC-SVG-20010904/DTD/svg10.dtd">
<svg version="1.0" xmlns="http://www.w3.org/2000/svg"
 width="499.000000pt" height="500.000000pt" viewBox="0 0 499.000000 500.000000"
 preserveAspectRatio="xMidYMid meet">

<g transform="translate(0.000000,500.000000) scale(0.100000,-0.100000)"
fill="#000000" stroke="none">
<path d="M2280 4749 c-578 -59 -1136 -352 -1502 -788 -447 -533 -624 -1222
-492 -1906 87 -447 306 -849 640 -1176 338 -329 745 -534 1224 -614 134 -22
418 -30 570 -16 899 87 1662 701 1933 1556 253 796 51 1670 -522 2259 -131
134 -228 215 -370 310 -434 290 -972 426 -1481 375z m424 -245 c202 -14 471
-91 681 -193 692 -339 1134 -1043 1135 -1807 0 -531 -195 -1020 -560 -1398
-393 -408 -902 -626 -1460 -626 -775 0 -1478 443 -1815 1145 -324 673 -255
1432 185 2058 86 121 327 363 447 447 329 230 671 355 1043 380 113 7 168 7
344 -6z"/>
<path d="M1851 3733 c-50 -25 -71 -78 -71 -185 l0 -88 50 0 c49 0 50 1 50 29
0 47 17 79 52 101 32 20 47 20 585 18 l552 -3 30 -29 c22 -21 31 -40 33 -70
l3 -41 47 -3 c44 -3 48 -1 54 23 10 39 -4 162 -22 196 -8 17 -29 39 -47 49
-31 19 -55 20 -657 20 -563 0 -628 -2 -659 -17z"/>
<path d="M1000 3348 c-52 -27 -78 -60 -90 -114 -12 -51 -12 -1597 0 -1648 11
-48 36 -84 80 -114 31 -21 43 -22 144 -20 l111 3 2 958 1 957 -102 0 c-86 0
-109 -4 -146 -22z"/>
<path d="M1367 3364 c-9 -9 -8 -1887 1 -1902 7 -10 242 -12 1143 -10 l1134 3
3 958 2 957 -1138 0 c-626 0 -1141 -3 -1145 -6z"/>
<path d="M3760 2411 l0 -961 108 0 c131 0 174 19 210 90 l22 44 0 825 c0 802
-1 826 -20 865 -11 23 -36 52 -57 66 -33 22 -48 25 -150 28 l-113 4 0 -961z"/>
</g>
</svg>
